{"glyphs":{"\u0000":{"ha":0,"x_min":0,"x_max":0,"o":""},"\u001d":{"ha":0,"x_min":0,"x_max":0,"o":""}," ":{"ha":471,"x_min":0,"x_max":0,"o":""}," ":{"ha":471,"x_min":0,"x_max":0,"o":""},"A":{"ha":828,"x_min":0,"x_max":805,"o":"m 545 -841 l 554 -838 q 567 -823 560 -835 q 574 -781 574 -811 q 566 -642 574 -742 q 556 -219 556 -489 q 566 214 556 42 q 581 395 575 385 q 660 430 583 398 q 794 491 781 479 q 805 515 805 505 q 778 534 805 534 q 732 525 759 534 q 659 496 705 515 l 582 466 q 589 573 586 545 q 596 658 592 601 l 621 951 q 635 1155 635 1094 q 627 1212 635 1200 q 600 1223 618 1223 q 574 1212 584 1223 q 550 1171 564 1200 q 437 882 526 1121 q 237 326 348 642 l 184 305 q 80 256 89 269 q 74 237 74 247 q 83 217 74 224 q 102 210 92 210 q 176 235 115 210 q 206 245 203 245 l 126 10 q 37 -250 75 -139 q 0 -374 0 -361 q 9 -397 0 -389 q 31 -406 19 -406 q 48 -399 39 -406 q 138 -148 56 -389 q 267 223 197 28 l 286 280 q 427 336 372 313 q 512 367 503 367 l 513 359 q 498 33 501 115 q 494 -231 494 -85 q 508 -688 494 -465 q 514 -772 511 -743 q 523 -816 517 -802 q 535 -836 528 -829 l 545 -841 m 319 360 q 317 363 317 360 q 427 671 321 381 q 566 1045 564 1045 l 566 1039 q 562 979 566 1023 q 541 726 551 861 q 515 440 518 448 q 416 399 509 435 l 319 360 z "},"B":{"ha":1228,"x_min":0,"x_max":1203,"o":"m 31 -350 q 54 -339 45 -350 q 78 -238 63 -328 q 279 522 155 208 q 558 996 402 836 q 650 1073 606 1044 q 722 1101 694 1101 q 752 1065 751 1101 q 713 951 752 1023 q 619 828 680 895 q 497 713 558 762 q 455 680 469 692 q 436 661 441 667 q 432 646 432 654 q 459 616 432 621 q 507 629 473 616 q 784 680 659 680 q 962 651 882 680 q 1089 553 1042 621 q 1141 374 1137 486 q 1093 164 1141 272 q 961 -39 1044 56 q 768 -201 877 -135 q 638 -261 703 -241 q 519 -281 574 -281 q 394 -239 441 -281 q 362 -184 372 -220 q 352 -66 353 -148 q 349 -11 351 -31 q 346 19 348 9 q 342 33 345 28 q 319 47 331 47 q 294 27 304 47 q 288 -10 288 16 q 308 -216 289 -149 q 394 -315 326 -283 q 522 -342 450 -342 q 762 -277 641 -342 q 982 -108 882 -213 q 1142 123 1082 -3 q 1203 374 1203 250 l 1201 421 q 916 729 1173 663 q 789 741 863 741 q 615 725 709 741 q 613 726 613 725 q 642 760 613 730 q 771 928 728 850 q 815 1064 815 1006 q 775 1148 815 1120 q 756 1156 766 1154 q 720 1158 746 1158 q 679 1156 691 1158 q 647 1142 667 1153 q 395 889 519 1079 q 174 419 271 699 q 153 361 155 361 q 163 420 153 368 q 359 1165 251 888 q 372 1211 372 1196 q 362 1233 372 1225 q 344 1240 352 1240 q 295 1173 319 1240 q 127 560 205 935 q 9 -210 49 184 q 0 -312 0 -286 q 9 -343 0 -337 q 31 -350 18 -350 z "},"C":{"ha":982,"x_min":0,"x_max":960,"o":"m 353 -374 q 565 -301 469 -374 q 696 -144 631 -251 q 709 -111 709 -124 q 707 -91 708 -98 q 702 -83 705 -85 q 691 -79 699 -81 l 685 -77 q 661 -92 674 -77 q 624 -142 648 -107 q 497 -272 564 -232 q 357 -312 431 -312 q 199 -246 266 -312 q 96 -65 132 -180 q 59 195 59 50 q 89 461 59 325 q 178 725 119 597 q 423 1066 276 940 q 747 1206 570 1192 q 857 1173 814 1206 q 900 1084 900 1139 q 872 983 900 1045 q 803 863 845 920 q 563 629 703 734 q 527 602 539 612 q 510 585 515 591 q 506 572 506 578 q 535 542 506 544 q 549 544 543 542 q 567 554 556 547 q 598 576 578 562 q 951 1013 884 798 q 960 1080 960 1045 q 921 1201 960 1158 q 817 1259 882 1244 q 744 1265 787 1265 q 671 1260 705 1265 q 264 988 448 1211 q 68 619 136 823 q 0 209 0 414 q 11 21 0 96 q 54 -132 22 -54 q 306 -370 138 -335 q 353 -374 328 -374 z "},"D":{"ha":1060,"x_min":0,"x_max":1030,"o":"m 31 -400 q 57 -385 47 -400 q 73 -306 63 -375 q 334 589 153 192 q 583 985 450 839 q 821 1131 715 1131 q 859 1124 840 1131 q 898 1098 877 1118 q 932 1055 920 1078 q 961 969 950 1021 q 972 866 972 917 q 965 778 972 833 q 949 678 958 722 q 901 521 932 606 q 833 363 870 436 q 636 60 756 210 q 388 -192 517 -90 q 153 -300 259 -294 q 111 -330 112 -300 q 123 -353 111 -347 q 165 -359 134 -359 q 259 -342 215 -359 q 364 -284 303 -326 q 701 39 551 -155 q 941 450 851 233 q 1030 856 1030 667 q 1023 983 1030 938 q 992 1074 1015 1029 q 897 1175 958 1145 q 872 1186 882 1183 q 853 1191 863 1190 q 822 1192 842 1192 q 507 992 675 1192 q 191 410 339 793 q 168 356 172 356 l 167 359 q 197 522 167 376 l 199 533 q 354 1135 281 943 q 376 1199 376 1192 q 365 1218 376 1208 q 345 1228 355 1228 q 282 1123 320 1228 q 203 843 245 1018 q 120 454 161 669 q 47 15 79 239 q 15 -230 30 -111 q 0 -372 0 -350 q 12 -394 2 -387 q 31 -400 21 -400 z "},"E":{"ha":953,"x_min":0,"x_max":933,"o":"m 39 -410 q 68 -395 54 -410 q 88 -366 83 -380 q 97 -352 92 -357 q 116 -344 102 -348 q 256 -330 157 -330 q 602 -349 348 -330 q 796 -361 747 -361 q 836 -357 825 -361 q 851 -346 847 -354 q 854 -331 854 -338 q 844 -309 854 -318 q 832 -303 840 -305 q 809 -301 825 -302 q 766 -299 794 -300 l 629 -289 q 437 -275 520 -280 q 246 -271 354 -271 q 194 -271 212 -271 q 165 -273 176 -272 q 146 -275 155 -273 q 123 -277 137 -276 l 119 -277 l 126 -236 q 209 297 174 31 q 223 385 220 382 q 279 392 226 388 q 583 411 403 401 l 633 414 q 671 424 665 417 q 685 447 685 434 q 676 466 685 457 q 669 471 673 469 q 660 473 666 473 q 642 474 654 474 q 333 459 433 469 q 237 454 272 454 l 231 454 l 231 456 q 267 821 231 492 q 309 1158 302 1143 q 658 1171 553 1168 l 859 1177 q 929 1194 919 1177 q 933 1209 933 1202 q 925 1224 933 1215 q 907 1237 918 1234 l 876 1238 q 538 1228 657 1232 q 346 1224 403 1224 q 293 1227 304 1224 q 286 1230 288 1228 q 280 1232 285 1232 q 267 1230 275 1232 q 205 1222 249 1224 l 168 1221 q 139 1213 146 1219 q 130 1193 130 1204 q 142 1168 130 1179 q 168 1160 150 1162 q 245 1160 178 1160 l 243 1137 q 190 674 227 1023 l 172 502 q 165 454 167 460 l 163 447 q 95 440 117 444 q 66 430 73 436 q 60 412 60 423 q 69 391 60 400 q 79 383 74 385 q 99 381 85 381 l 141 382 q 154 381 151 382 q 157 376 157 380 q 149 309 157 370 q 130 172 140 247 q 112 44 119 98 q 58 -248 83 -149 q 49 -284 52 -272 q 41 -302 45 -296 q 31 -315 37 -309 q 0 -369 0 -343 q 13 -398 0 -387 q 39 -410 25 -410 z "},"F":{"ha":1002,"x_min":0,"x_max":981,"o":"m 170 -376 q 202 -327 200 -376 l 201 -288 q 260 376 201 -130 l 262 389 l 459 391 q 586 393 539 391 q 654 396 632 394 q 683 404 676 399 q 691 415 690 408 q 693 428 692 422 q 637 456 693 456 l 605 454 q 378 450 467 450 q 321 450 339 450 q 294 451 303 450 q 275 454 285 452 l 270 454 q 309 737 286 584 q 350 1004 331 890 q 376 1126 370 1117 q 457 1137 383 1129 q 843 1174 622 1156 q 943 1185 931 1182 q 970 1199 960 1190 q 981 1218 981 1208 q 977 1228 981 1224 q 960 1237 972 1232 q 947 1242 953 1240 q 930 1244 941 1244 q 474 1202 609 1221 q 401 1194 414 1194 q 391 1196 393 1194 q 389 1202 389 1198 l 389 1208 q 361 1235 389 1234 q 337 1224 344 1235 q 324 1190 330 1213 l 322 1183 q 216 1168 281 1178 q 96 1150 151 1159 q 27 1137 40 1141 q 7 1125 14 1134 q 0 1107 0 1116 q 8 1088 0 1097 q 33 1080 17 1080 q 183 1100 50 1080 q 303 1116 292 1116 q 306 1116 304 1116 q 307 1115 307 1116 q 286 989 307 1105 q 245 744 263 864 q 222 574 237 688 q 208 456 208 460 l 188 454 l 81 458 q 60 456 66 458 q 49 448 54 454 q 37 428 37 439 q 57 401 37 408 q 138 395 77 395 q 192 392 183 395 q 196 388 196 391 l 196 387 q 186 277 196 366 q 139 -294 139 -144 q 157 -373 139 -366 l 170 -376 z "},"G":{"ha":1105,"x_min":0,"x_max":1081,"o":"m 693 -319 q 779 -306 712 -319 q 970 -277 871 -288 q 1042 -272 1029 -272 q 1081 -243 1081 -267 q 1078 -225 1081 -231 q 1065 -214 1075 -219 q 1042 -212 1061 -212 q 913 -220 1010 -212 q 898 -158 904 -220 q 892 -5 892 -97 q 898 187 892 83 q 917 371 905 290 q 924 425 924 408 q 914 447 924 439 q 896 454 904 454 q 884 450 890 454 q 870 439 875 446 q 851 398 866 432 q 718 167 797 278 q 563 -15 645 66 q 401 -144 481 -96 q 253 -193 320 -193 q 113 -108 163 -193 q 62 131 62 -23 q 158 571 62 333 q 435 995 255 808 q 612 1130 526 1084 q 764 1176 699 1176 q 800 1171 782 1176 q 833 1160 817 1166 q 873 1149 858 1149 q 894 1159 886 1149 q 902 1177 902 1168 q 846 1224 902 1202 q 826 1231 836 1229 q 802 1234 817 1233 q 762 1235 787 1235 q 719 1234 734 1235 q 693 1230 705 1233 q 664 1221 682 1227 q 353 1000 497 1160 q 115 625 209 839 q 2 192 20 412 l 0 126 q 30 -74 0 12 q 117 -208 60 -160 q 254 -255 174 -255 q 326 -245 288 -255 q 396 -218 353 -238 q 471 -176 438 -197 q 808 193 646 -54 q 838 237 836 237 l 837 208 q 832 42 832 131 q 846 -230 832 -158 q 785 -239 819 -233 q 724 -252 751 -245 q 687 -262 696 -258 q 667 -290 667 -272 q 673 -310 667 -300 q 693 -319 679 -319 z "},"H":{"ha":982,"x_min":0,"x_max":963,"o":"m 734 -328 q 752 -320 744 -328 q 762 -199 760 -309 q 784 202 762 -58 q 803 362 793 284 q 817 469 812 440 l 923 466 q 942 467 936 466 q 950 470 947 468 q 956 475 954 472 q 963 494 963 485 q 956 513 963 505 q 857 530 943 527 q 826 533 827 532 q 841 639 826 543 q 915 1092 874 854 q 935 1223 935 1206 q 932 1236 935 1231 q 907 1251 922 1251 q 880 1233 890 1251 q 854 1103 875 1217 q 775 620 805 824 q 761 532 765 543 q 597 522 747 527 q 169 499 414 517 l 169 503 q 176 595 169 521 q 202 1002 202 857 q 181 1178 202 1127 q 117 1229 161 1229 q 92 1219 104 1229 q 80 1200 80 1210 q 84 1186 80 1194 q 95 1174 89 1179 q 105 1169 100 1169 q 132 1129 125 1169 q 140 991 140 1089 q 132 807 140 924 q 115 597 124 690 q 99 494 105 504 q 65 488 94 492 q 16 477 24 482 q 0 452 0 467 q 8 431 0 440 q 37 422 17 422 l 95 427 q 63 111 81 271 q 38 -135 48 -24 q 24 -265 28 -239 l 22 -276 q 53 -309 22 -302 q 82 -285 72 -309 q 121 62 88 -258 q 163 433 157 421 q 236 442 168 436 q 517 460 361 453 q 746 467 698 467 l 751 467 l 751 464 q 741 363 751 444 q 698 -195 698 3 l 699 -237 q 702 -292 699 -273 q 713 -319 704 -310 q 734 -328 723 -328 z "},"I":{"ha":464,"x_min":0,"x_max":444,"o":"m 30 -374 q 60 -371 40 -374 q 107 -365 81 -368 q 163 -362 133 -362 q 208 -358 194 -362 q 224 -346 221 -353 q 228 -331 228 -339 q 214 -307 228 -317 q 202 -305 210 -306 q 181 -304 193 -304 q 158 -303 170 -304 q 138 -301 146 -302 q 130 -296 130 -300 l 144 -202 q 199 156 166 -75 q 290 865 232 387 q 333 1192 328 1181 q 376 1198 337 1196 q 419 1206 405 1202 q 437 1217 433 1210 q 444 1234 442 1223 q 442 1247 444 1240 q 433 1258 440 1253 q 410 1262 426 1262 q 103 1226 211 1247 q 82 1214 90 1223 q 74 1194 74 1204 q 104 1166 74 1166 q 180 1175 115 1166 q 263 1185 249 1185 q 266 1185 264 1185 q 267 1183 267 1184 q 149 236 179 469 q 79 -224 109 -68 q 70 -277 72 -259 q 64 -302 67 -295 q 54 -310 62 -309 q 9 -327 19 -317 q 0 -347 0 -336 q 10 -368 0 -357 q 30 -374 15 -374 z "},"J":{"ha":801,"x_min":0,"x_max":781,"o":"m 281 -336 q 464 -265 380 -331 q 606 -83 547 -199 q 764 709 736 161 q 775 969 770 826 q 781 1160 781 1112 q 767 1237 781 1213 q 719 1261 754 1261 q 629 1243 686 1261 l 538 1216 q 503 1202 511 1209 q 495 1181 495 1196 q 503 1162 495 1172 q 522 1152 510 1152 q 543 1155 531 1153 q 634 1180 564 1158 q 714 1201 704 1201 q 716 1196 715 1201 q 718 1179 718 1192 q 718 1142 718 1166 q 710 858 718 1045 q 690 540 702 671 q 404 -233 635 -81 q 275 -275 338 -275 q 152 -227 206 -275 q 72 -89 97 -178 q 64 8 64 -50 q 78 155 64 92 q 116 270 92 217 q 174 374 141 322 q 198 413 191 399 q 205 435 205 427 q 197 455 205 448 q 180 463 189 463 q 157 455 168 463 q 122 406 146 445 q 77 326 98 366 q 19 170 39 250 q 0 14 0 90 q 56 -210 0 -119 q 215 -330 112 -301 q 281 -336 236 -336 z "},"K":{"ha":1015,"x_min":0,"x_max":995,"o":"m 700 -333 q 721 -325 712 -333 q 729 -304 729 -316 q 722 -283 729 -291 q 694 -266 715 -275 q 594 -158 640 -237 q 520 26 548 -79 q 492 233 492 132 q 529 483 492 355 q 618 699 566 612 q 745 877 657 760 q 909 1088 833 994 l 954 1140 q 989 1185 983 1175 q 995 1202 995 1194 q 985 1224 995 1215 q 962 1232 975 1232 q 950 1230 956 1232 q 915 1196 945 1227 q 783 1048 845 1120 q 679 909 725 979 q 590 773 632 840 q 521 666 556 719 q 98 -94 279 299 q 69 -153 72 -153 q 192 652 109 279 q 355 1187 275 1026 q 370 1225 370 1218 q 343 1253 366 1253 q 321 1245 332 1253 q 253 1105 295 1223 q 170 820 211 987 q 53 230 97 526 q 0 -278 8 -66 q 1 -295 0 -288 q 9 -309 3 -301 q 22 -319 16 -317 q 37 -321 28 -321 q 54 -319 47 -321 q 68 -302 60 -316 q 129 -177 81 -283 q 402 356 257 109 l 410 371 q 448 430 443 430 q 448 428 448 430 l 439 370 q 436 323 437 351 l 435 178 q 437 113 435 134 q 447 62 440 92 q 534 -176 477 -74 q 659 -317 591 -279 q 700 -333 688 -333 z "},"L":{"ha":1080,"x_min":0,"x_max":1053,"o":"m 103 -366 q 194 -348 154 -366 q 272 -298 234 -330 q 353 -222 310 -267 q 525 -281 462 -262 q 634 -307 589 -300 q 737 -315 680 -314 q 888 -288 822 -315 q 1007 -205 954 -260 q 1053 -129 1053 -157 q 1045 -108 1053 -117 q 1025 -99 1038 -99 q 1003 -109 1011 -99 q 923 -197 964 -165 q 836 -241 882 -229 q 734 -253 789 -253 q 627 -241 684 -253 q 550 -221 600 -235 q 455 -192 500 -206 q 399 -172 410 -178 l 398 -168 q 416 -135 398 -161 q 671 830 616 175 q 677 1065 677 903 q 675 1183 677 1132 q 670 1244 674 1235 q 659 1259 667 1253 q 642 1264 650 1264 q 614 1223 614 1264 l 618 1091 q 551 412 618 734 q 356 -111 484 90 q 335 -141 342 -133 q 323 -149 328 -149 l 300 -144 q 251 -135 274 -139 q 201 -132 227 -132 q 96 -153 141 -132 q 25 -207 50 -174 q 0 -276 0 -240 q 28 -340 0 -313 q 64 -361 47 -356 q 103 -366 81 -366 m 106 -304 q 62 -274 65 -304 q 79 -235 63 -254 q 125 -205 94 -217 q 202 -193 155 -193 q 255 -197 230 -193 q 280 -206 280 -201 q 247 -239 277 -214 q 170 -288 208 -271 q 106 -304 132 -304 z "},"M":{"ha":1101,"x_min":0,"x_max":1074,"o":"m 31 -372 q 65 -346 52 -372 q 79 -299 79 -320 q 78 -291 79 -294 q 76 -285 77 -288 q 75 -277 75 -282 q 121 -44 75 -250 q 232 422 168 161 q 354 905 296 684 q 440 1200 412 1125 l 453 1234 q 464 1156 459 1205 q 473 1010 468 1106 q 484 745 477 914 q 504 282 494 427 q 528 87 514 137 q 586 20 546 20 q 623 40 606 20 q 656 96 638 56 q 788 466 688 168 q 937 894 885 760 q 1005 1042 991 1033 q 1011 991 1011 1042 q 994 588 1011 886 q 964 -212 966 174 q 966 -292 964 -264 q 1002 -359 969 -359 q 1019 -351 1010 -359 q 1022 -349 1020 -350 q 1026 -345 1023 -347 q 1028 -322 1028 -342 l 1024 -142 q 1054 559 1024 62 q 1074 980 1074 861 q 1066 1078 1074 1046 q 1045 1121 1058 1110 q 1016 1131 1032 1131 q 952 1079 985 1131 q 867 889 919 1027 q 732 500 816 751 l 665 300 q 608 140 620 168 q 589 101 600 124 q 571 206 578 142 q 558 396 564 270 q 545 750 553 522 q 534 1007 539 903 q 522 1175 528 1112 q 508 1270 516 1238 q 488 1313 499 1303 q 460 1324 476 1324 q 435 1315 448 1324 q 407 1278 422 1306 q 372 1193 392 1250 q 326 1039 352 1135 q 199 552 275 861 q 62 -29 123 243 q 0 -334 0 -301 q 9 -360 0 -348 q 31 -372 18 -372 z "},"N":{"ha":891,"x_min":0,"x_max":865,"o":"m 32 -321 q 53 -312 44 -321 q 60 -286 58 -306 q 63 -194 62 -266 q 111 471 74 84 q 189 1055 149 857 q 199 1097 193 1076 q 220 1151 216 1151 q 231 1129 222 1151 q 250 1078 240 1107 q 315 755 277 967 q 378 431 348 574 q 518 -19 446 133 q 662 -171 591 -171 q 772 -28 733 -171 q 814 305 800 77 q 832 815 821 408 q 844 1085 838 990 q 861 1231 851 1179 q 865 1265 865 1251 q 837 1304 865 1304 q 813 1290 821 1304 q 799 1238 805 1275 q 782 1062 789 1179 q 767 689 774 945 q 751 285 760 421 q 726 60 742 149 q 659 -108 696 -108 q 626 -78 648 -108 q 583 -6 604 -49 q 480 278 528 102 q 380 741 433 454 q 317 1061 339 969 q 272 1188 295 1154 q 220 1223 250 1223 q 191 1215 205 1223 q 110 974 147 1187 q 60 576 85 822 q 17 94 35 331 q 0 -246 0 -142 q 9 -312 0 -301 q 32 -321 20 -321 z "},"O":{"ha":871,"x_min":0,"x_max":842,"o":"m 243 -335 q 344 -325 298 -335 q 640 -106 517 -271 q 788 194 734 22 q 842 556 842 366 q 752 975 842 803 q 504 1205 662 1147 q 478 1213 490 1211 q 452 1216 467 1215 q 410 1217 437 1217 l 380 1217 q 345 1215 357 1217 q 319 1208 333 1213 q 180 1122 243 1182 q 80 979 118 1062 q 43 804 43 897 q 88 629 43 723 q 114 579 104 593 q 139 566 125 566 q 163 590 163 566 q 144 651 163 610 q 106 804 106 735 q 173 1017 106 917 q 344 1149 241 1117 q 406 1158 372 1158 q 580 1095 504 1158 q 706 925 656 1032 q 774 683 755 819 q 779 566 779 636 q 773 430 779 487 q 624 -18 738 165 q 344 -259 510 -201 q 254 -274 298 -274 q 144 -240 187 -274 q 81 -151 102 -207 q 60 -28 60 -95 q 97 178 60 64 q 197 389 134 292 q 248 449 220 422 q 291 480 275 476 q 316 495 308 485 q 325 516 325 505 q 316 535 325 527 q 290 543 308 543 q 198 490 248 543 q 103 351 148 436 q 29 168 58 266 q 0 -20 0 69 q 6 -121 1 -83 q 33 -200 12 -159 q 213 -334 89 -308 q 243 -335 226 -335 z "},"P":{"ha":1006,"x_min":0,"x_max":975,"o":"m 38 -338 q 63 -325 52 -338 q 76 -290 73 -313 l 89 -149 q 345 869 142 470 q 530 1142 439 1055 q 711 1232 621 1230 q 805 1195 758 1232 q 883 1087 852 1158 q 914 915 914 1016 q 907 827 914 867 q 783 571 876 686 q 553 385 690 455 q 359 329 440 329 q 299 339 320 329 q 274 378 277 349 q 243 415 269 415 q 221 402 229 415 q 214 371 214 389 q 221 332 214 352 q 245 299 229 313 q 355 268 288 268 q 509 298 425 268 q 675 385 593 328 q 758 455 711 411 q 831 532 805 500 q 975 914 975 716 q 963 1042 975 986 q 774 1284 910 1230 q 706 1293 744 1293 q 642 1285 670 1293 q 333 980 479 1230 q 94 317 187 730 q 80 264 83 264 l 79 269 q 166 830 109 593 q 293 1177 223 1068 q 316 1224 316 1217 q 311 1236 316 1229 q 299 1247 306 1242 q 288 1253 293 1253 q 193 1120 249 1253 q 88 756 138 988 q 14 220 38 525 q 0 -124 0 34 q 12 -319 0 -293 q 38 -338 24 -338 z "},"Q":{"ha":899,"x_min":0,"x_max":872,"o":"m 410 -629 q 429 -621 420 -629 q 437 -602 437 -612 q 416 -559 437 -592 q 387 -507 398 -534 q 370 -462 380 -492 q 345 -367 345 -382 q 353 -359 345 -363 q 382 -348 361 -355 q 694 -105 566 -288 q 863 337 823 78 q 872 510 872 391 q 867 637 872 589 q 687 1073 821 913 q 384 1232 553 1232 q 189 1158 270 1232 q 74 936 108 1084 q 66 886 68 909 q 64 814 64 863 q 69 720 64 749 q 91 668 74 690 q 125 647 108 647 q 151 673 149 647 q 141 702 151 682 q 129 739 131 722 q 126 791 126 755 l 125 825 q 160 1008 125 930 q 254 1129 195 1086 q 382 1172 312 1172 q 551 1115 463 1172 q 742 862 673 1029 q 811 492 811 694 q 759 159 811 313 q 708 41 741 107 q 646 -66 675 -24 q 570 -156 617 -108 q 487 -227 522 -203 q 402 -274 448 -253 q 339 -294 356 -294 q 333 -292 334 -294 q 330 -261 331 -290 q 329 -200 329 -233 q 332 -113 329 -144 l 333 -98 q 326 -71 333 -77 q 303 -62 319 -64 q 277 -77 288 -62 q 269 -127 272 -91 q 265 -206 265 -164 l 269 -304 q 198 -288 227 -298 q 142 -251 170 -277 q 80 -149 101 -212 q 59 -7 59 -85 q 100 231 59 102 q 203 440 141 351 q 321 548 265 530 q 348 561 339 552 q 357 581 357 570 q 349 601 357 591 q 330 610 341 610 q 146 470 239 597 q 9 126 53 342 q 0 -3 0 85 q 1 -65 0 -43 q 3 -101 1 -87 q 10 -132 5 -115 q 245 -363 68 -342 l 279 -364 q 319 -500 298 -440 q 363 -594 340 -559 q 410 -629 386 -629 z "},"R":{"ha":1064,"x_min":0,"x_max":1040,"o":"m 927 -341 q 953 -331 941 -341 q 969 -303 966 -320 q 973 -264 973 -286 q 957 -141 973 -211 q 913 -12 940 -72 q 734 199 848 117 q 479 299 622 274 l 460 303 q 440 308 443 307 q 609 392 532 348 q 768 500 687 435 q 858 584 810 534 q 935 674 905 634 q 1011 814 983 739 q 1040 968 1040 889 q 1034 1034 1040 1006 q 990 1129 1021 1085 q 908 1201 960 1173 q 777 1228 856 1228 q 572 1162 669 1228 q 107 334 276 964 q 89 276 92 276 l 88 277 q 106 419 88 294 q 212 921 146 696 q 321 1195 265 1103 q 328 1215 328 1206 q 318 1235 328 1226 q 298 1244 309 1244 q 238 1173 272 1244 q 154 957 196 1090 q 78 643 113 823 q 21 242 43 463 q 0 -234 0 21 q 3 -316 0 -302 q 28 -330 13 -330 q 56 -315 44 -330 q 66 -256 62 -306 q 193 412 102 113 q 412 905 283 711 q 693 1153 541 1099 q 734 1163 719 1161 q 779 1166 749 1166 q 926 1110 873 1166 q 979 963 979 1055 q 877 700 972 828 q 616 468 781 572 q 419 369 528 414 q 228 307 311 324 q 176 289 188 299 q 165 263 165 279 q 197 237 165 237 q 237 241 212 237 q 339 248 294 248 q 516 229 439 248 q 652 178 593 210 q 753 104 710 145 q 911 -262 899 -33 q 905 -297 911 -283 q 901 -315 901 -307 q 909 -334 901 -327 q 927 -341 917 -341 z "},"S":{"ha":904,"x_min":0,"x_max":875,"o":"m 295 -326 q 579 -256 448 -326 q 790 -68 710 -186 q 875 196 869 49 q 732 536 875 376 q 503 730 674 604 q 370 839 414 798 q 310 915 327 880 q 300 940 303 930 q 295 959 296 949 q 294 985 294 968 q 297 1020 294 1008 q 307 1048 299 1031 q 413 1162 343 1118 q 538 1205 483 1205 q 588 1195 566 1205 q 629 1153 610 1184 q 667 1063 648 1122 q 679 1026 672 1041 q 688 1008 685 1010 q 707 1002 696 1002 q 727 1008 718 1002 q 735 1029 735 1015 q 710 1124 735 1061 q 652 1223 686 1188 q 602 1256 627 1247 q 541 1265 577 1265 q 392 1223 464 1265 q 275 1116 321 1181 q 230 985 230 1051 q 349 772 230 877 q 471 677 385 741 q 594 582 549 619 q 668 513 638 545 q 812 193 812 362 q 724 -54 812 59 q 531 -208 648 -152 q 298 -264 414 -264 q 179 -245 233 -264 q 93 -191 125 -226 q 61 -111 61 -157 q 104 3 61 -56 q 224 123 147 62 q 404 243 301 184 q 445 268 431 258 q 461 286 458 279 q 465 298 465 292 q 457 316 465 307 q 438 324 450 324 q 374 298 418 324 q 90 84 179 185 q 0 -114 0 -18 q 27 -208 0 -165 q 102 -279 55 -251 q 196 -314 144 -302 q 295 -326 248 -326 z "},"T":{"ha":1010,"x_min":0,"x_max":994,"o":"m 294 -334 q 322 -301 322 -334 l 322 -296 q 309 -93 312 -163 q 304 62 304 -28 q 376 631 304 404 q 591 990 447 859 q 751 1098 659 1053 q 932 1160 844 1144 q 980 1175 966 1166 q 994 1202 994 1183 q 965 1229 994 1225 q 910 1223 949 1229 q 348 1185 724 1186 q 195 1188 245 1185 q 94 1197 144 1192 q 31 1204 66 1200 q 7 1194 14 1204 q 0 1173 0 1183 q 5 1155 0 1163 q 42 1141 11 1147 q 147 1128 73 1136 q 368 1123 204 1123 q 534 1125 481 1123 q 668 1132 591 1126 l 675 1131 l 634 1102 q 367 780 461 986 q 249 262 272 574 q 244 62 244 195 q 249 -147 244 -70 q 262 -290 256 -250 q 279 -332 269 -330 l 294 -334 z "},"U":{"ha":904,"x_min":0,"x_max":883,"o":"m 191 -304 q 258 -291 227 -304 q 499 -35 380 -235 q 721 484 618 164 q 738 539 732 522 q 760 606 743 557 q 726 -18 736 290 q 721 -178 724 -133 q 719 -227 719 -205 q 726 -252 719 -247 q 744 -258 733 -258 q 770 -244 759 -258 q 782 -188 778 -236 q 791 20 785 -140 q 823 608 800 314 q 873 1084 846 902 q 883 1162 883 1142 q 873 1189 883 1181 q 854 1196 863 1196 q 833 1185 844 1196 q 825 1173 828 1181 q 818 1150 821 1166 q 810 1102 814 1134 q 716 688 778 912 q 583 282 654 463 q 379 -102 484 39 q 191 -243 274 -243 q 66 -29 94 -243 q 63 62 63 5 q 66 185 63 120 q 75 295 69 250 q 261 1084 127 686 q 286 1160 279 1135 q 294 1197 294 1185 q 284 1217 294 1211 q 264 1222 274 1222 q 248 1219 256 1222 q 199 1100 234 1207 q 125 849 164 993 q 60 585 86 706 q 0 87 0 291 q 12 -83 1 -17 q 49 -203 22 -149 q 106 -277 70 -249 q 191 -304 142 -304 z "},"V":{"ha":895,"x_min":0,"x_max":865,"o":"m 145 -372 q 224 -321 174 -372 q 338 -183 275 -271 q 472 16 401 -96 q 865 1031 844 606 q 838 1155 865 1107 q 749 1238 811 1202 q 684 1264 706 1264 q 666 1258 671 1264 q 660 1239 661 1252 q 707 1192 660 1217 q 761 1153 742 1171 q 798 1093 789 1126 q 801 1024 801 1081 q 736 696 801 886 q 564 301 671 505 q 330 -87 458 98 q 217 -235 269 -172 q 156 -298 166 -298 l 155 -298 q 154 -297 155 -298 q 153 -288 153 -296 q 158 -203 153 -270 q 182 306 182 88 q 126 947 182 690 q 90 1095 111 1021 q 56 1200 69 1169 q 27 1220 44 1220 q 8 1213 16 1220 q 0 1194 0 1206 q 14 1132 0 1175 q 123 319 123 786 q 105 -58 123 199 q 93 -278 93 -208 q 100 -337 93 -317 q 119 -365 107 -357 q 145 -372 131 -372 z "},"W":{"ha":1409,"x_min":0,"x_max":1383,"o":"m 98 -319 q 233 -231 155 -319 q 431 56 311 -143 l 448 83 q 472 120 471 120 l 470 28 q 535 -205 470 -121 q 715 -290 600 -290 q 904 -236 808 -290 q 1085 -88 999 -182 q 1238 127 1171 5 q 1344 385 1305 248 q 1383 660 1383 522 q 1345 891 1383 789 q 1241 1052 1307 994 q 1090 1111 1175 1111 q 1007 1094 1047 1111 q 938 1047 966 1078 q 890 971 909 1017 q 854 848 871 926 q 839 757 839 781 q 848 727 839 737 q 865 718 857 718 q 886 730 876 718 q 901 767 896 743 q 937 917 922 868 q 970 989 951 965 q 1089 1048 1014 1047 q 1210 997 1157 1048 q 1292 859 1262 946 q 1322 661 1322 771 q 1293 431 1322 550 q 1204 197 1263 311 q 980 -104 1109 9 q 715 -227 851 -217 q 613 -196 654 -227 q 552 -108 572 -165 q 531 25 531 -51 q 548 189 531 77 q 556 256 556 239 q 524 291 556 291 l 513 289 q 484 262 501 286 q 412 146 467 238 q 209 -161 286 -66 q 100 -257 132 -257 q 65 -104 65 -257 q 75 77 65 -15 q 158 494 101 272 q 289 906 214 715 q 443 1199 363 1097 q 461 1235 461 1221 q 453 1253 461 1246 q 434 1261 444 1261 q 354 1183 404 1261 q 194 831 273 1058 q 60 351 115 604 q 0 -106 5 98 q 98 -319 0 -319 z "},"X":{"ha":899,"x_min":0,"x_max":878,"o":"m 128 -327 q 146 -320 138 -327 q 157 -300 155 -314 q 153 -283 157 -294 q 146 -258 149 -272 q 142 -224 142 -243 q 183 -12 142 -145 q 314 309 224 122 q 333 343 330 343 q 337 338 335 343 q 435 128 374 243 q 553 -68 496 13 q 846 -300 714 -300 q 878 -273 878 -300 q 829 -235 878 -245 q 715 -167 770 -222 q 533 78 618 -70 q 369 420 449 225 q 400 480 385 452 q 444 559 415 508 q 529 714 472 611 q 718 1076 664 957 q 772 1260 772 1196 q 770 1272 772 1268 q 762 1280 768 1276 q 741 1290 750 1290 q 705 1227 720 1290 q 628 1031 684 1143 q 439 680 572 919 l 356 530 l 340 503 q 320 557 337 507 q 280 676 303 607 q 238 808 258 745 q 147 1072 183 984 q 71 1210 111 1160 q 31 1242 48 1242 q 0 1211 0 1235 q 2 1202 1 1206 q 8 1191 4 1198 q 23 1171 13 1183 q 94 1037 60 1123 q 190 755 129 950 q 249 571 227 638 q 300 427 272 505 q 136 45 190 199 q 81 -220 82 -109 q 94 -301 81 -275 q 128 -327 106 -327 z "},"Y":{"ha":859,"x_min":0,"x_max":839,"o":"m 406 -330 q 425 -321 414 -330 q 432 -314 430 -317 q 435 -303 435 -311 q 429 -267 435 -293 q 412 -85 412 -173 q 512 539 412 206 q 800 1164 613 873 q 839 1239 839 1219 q 829 1258 839 1250 q 810 1265 819 1265 q 758 1213 790 1265 q 419 435 535 883 l 413 418 q 324 553 358 498 q 258 678 290 609 q 62 1230 144 917 q 29 1264 53 1264 q 10 1254 20 1264 q 0 1234 0 1244 q 9 1196 0 1228 q 150 766 68 961 q 256 547 204 635 q 397 344 355 385 q 363 135 375 226 q 351 -77 351 43 q 360 -235 353 -180 q 380 -310 368 -290 q 406 -330 392 -330 z "},"Z":{"ha":1027,"x_min":0,"x_max":998,"o":"m 289 -347 q 599 -268 455 -347 q 858 -21 743 -188 q 962 197 927 82 q 998 422 998 312 q 975 587 998 509 q 908 726 953 665 q 749 852 846 809 q 527 895 651 895 q 468 893 490 894 q 435 891 447 892 q 414 888 423 890 l 413 889 q 435 911 413 892 q 541 1016 494 964 q 617 1116 589 1068 q 645 1204 645 1164 l 646 1218 q 638 1244 646 1235 q 620 1259 630 1253 l 614 1263 q 586 1269 602 1269 q 178 1052 476 1269 q 112 999 124 1013 q 105 981 105 990 q 113 961 105 970 q 131 951 121 951 q 199 990 149 951 q 444 1153 353 1105 q 586 1207 534 1201 q 517 1082 577 1156 q 338 913 458 1008 q 274 857 277 863 q 271 843 271 850 q 283 819 271 830 q 292 812 288 814 q 307 810 297 810 q 352 815 319 810 q 432 827 385 821 q 534 833 479 833 q 599 829 572 833 q 790 757 715 814 q 901 612 865 700 q 937 420 937 525 q 850 88 937 254 q 612 -182 764 -78 q 303 -286 457 -286 q 124 -236 188 -283 q 60 -113 60 -189 q 83 -27 60 -68 q 168 55 105 13 q 198 76 186 66 q 213 90 211 85 q 217 106 217 98 q 209 124 217 117 q 189 131 201 131 q 167 125 180 131 q 130 102 155 119 q 31 8 62 59 q 0 -109 0 -42 q 64 -265 0 -201 q 244 -345 129 -328 q 289 -347 262 -347 z "},"a":{"ha":636,"x_min":-24,"x_max":673,"o":"m 60 -31 q 112 -17 84 -31 q 181 39 140 -3 q 261 138 226 85 q 281 163 276 163 q 290 134 287 163 l 293 119 q 370 3 309 35 q 394 -6 383 -4 q 432 -8 405 -8 q 468 -6 454 -8 q 495 2 482 -3 q 574 50 533 18 q 644 117 615 82 q 673 172 673 151 q 666 194 673 184 q 646 203 658 203 q 635 199 640 203 q 620 185 629 196 q 594 154 610 175 q 510 79 557 108 q 429 50 463 50 q 382 68 399 50 q 357 118 365 86 q 348 193 349 150 q 373 341 348 265 q 382 383 382 368 q 376 403 382 394 q 356 412 369 412 l 346 411 q 320 421 335 411 q 250 445 288 445 q 132 397 195 445 q 26 273 70 349 q -24 106 -18 196 l -24 86 q -12 15 -24 40 q 19 -20 0 -10 q 60 -31 39 -31 m 60 31 q 40 48 45 31 q 36 86 36 66 q 67 217 36 142 q 152 334 100 286 q 248 382 205 382 q 274 377 259 382 q 299 366 288 372 q 310 355 310 359 q 284 298 310 350 q 157 103 220 174 q 60 31 94 31 z "},"b":{"ha":635,"x_min":-5,"x_max":671,"o":"m 154 -126 q 263 -73 214 -121 q 341 47 312 -25 l 351 71 l 408 71 q 490 76 456 71 q 557 92 525 81 q 630 130 596 108 q 670 167 665 153 l 671 178 q 665 198 671 193 q 645 205 658 203 q 597 181 629 205 q 498 140 549 149 q 368 131 447 131 l 370 200 q 350 314 370 267 q 295 385 329 361 q 220 409 261 409 q 158 391 188 409 q 111 338 129 373 q 103 315 105 326 q 101 277 101 303 q 103 239 101 251 q 115 210 106 228 q 267 92 159 131 q 281 85 275 89 q 288 81 288 82 q 272 46 288 75 q 146 -66 220 -59 q 62 52 90 -66 q 56 157 56 92 q 64 290 56 227 q 298 1079 97 571 q 338 1185 327 1152 q 350 1231 350 1217 q 343 1248 350 1241 q 324 1255 336 1255 q 304 1249 313 1255 q 265 1162 297 1241 q 186 957 233 1083 q -1 262 26 535 q -5 178 -5 224 q -1 87 -5 131 q 7 19 2 43 q 35 -55 18 -22 q 78 -107 52 -87 q 143 -126 104 -126 l 154 -126 m 302 147 q 275 154 294 147 q 237 172 256 161 q 197 203 216 184 q 169 240 178 222 q 161 278 161 260 q 180 329 161 309 q 220 349 199 349 q 259 332 239 349 q 295 282 280 315 q 309 197 309 248 q 307 149 309 153 l 302 147 z "},"c":{"ha":515,"x_min":-17,"x_max":551,"o":"m 146 -68 q 308 -30 227 -68 q 472 81 388 8 q 551 180 551 149 q 542 200 551 192 q 524 209 532 209 q 482 175 509 209 q 314 44 405 95 q 156 -7 222 -7 q 45 115 50 -7 q 100 282 45 207 q 231 368 154 357 q 257 361 245 368 q 272 345 269 355 q 304 317 282 317 q 331 349 331 317 q 306 404 331 380 q 240 427 280 427 q 106 378 163 424 q 16 261 48 332 q -17 116 -17 191 q 17 -1 -17 50 q 114 -66 51 -52 q 146 -68 127 -68 z "},"d":{"ha":777,"x_min":-20,"x_max":808,"o":"m 62 -4 q 205 99 127 -4 q 366 395 283 201 l 395 463 l 395 376 q 517 45 395 105 q 546 34 535 35 q 583 32 557 32 q 639 40 614 32 q 696 68 663 47 q 735 97 711 77 q 779 138 758 117 q 804 167 799 159 q 808 183 808 176 q 801 203 808 195 q 781 211 793 211 q 777 210 779 210 q 771 208 774 210 q 761 203 767 207 q 745 190 755 199 q 718 165 735 181 q 679 131 696 143 q 645 111 663 119 q 580 92 608 92 q 489 164 523 92 q 456 375 456 237 q 541 899 456 591 q 630 1263 613 1143 q 622 1286 630 1277 q 602 1296 613 1296 q 574 1280 587 1296 q 519 1089 564 1267 q 493 987 514 1074 l 478 927 q 361 547 435 741 q 316 437 324 452 q 307 427 311 427 q 299 433 304 427 q 265 439 294 439 q 156 409 207 439 q 65 330 104 378 q 4 224 26 281 q -20 113 -19 168 q 2 26 -20 56 q 62 -4 25 -4 m 63 58 q 46 73 54 58 q 39 111 39 87 q 74 231 39 163 q 158 335 109 298 q 272 380 224 380 l 293 378 q 183 174 229 248 q 92 71 138 100 q 63 58 74 58 z "},"e":{"ha":519,"x_min":-8,"x_max":557,"o":"m 201 -22 q 371 17 289 -22 q 513 117 453 56 q 557 183 557 159 q 531 213 554 213 q 498 191 514 213 q 422 121 474 158 q 209 40 313 40 q 163 43 180 41 q 129 54 146 45 q 54 154 61 85 l 83 161 q 216 226 153 179 q 306 326 279 273 q 319 380 319 356 q 298 432 319 413 q 239 453 278 451 q 169 435 208 453 q 94 387 129 416 q 18 284 45 341 q -8 172 -8 227 q 13 81 -8 123 q 44 40 23 62 q 85 6 66 18 q 134 -14 104 -5 q 201 -22 165 -22 m 62 218 l 61 220 q 68 244 61 226 q 86 281 76 263 q 132 334 101 305 q 237 390 191 390 q 253 385 248 390 q 258 375 258 380 q 200 290 246 330 q 90 227 154 250 l 75 222 q 62 218 64 218 z "},"f":{"ha":368,"x_min":-264,"x_max":399,"o":"m -189 -902 q -91 -842 -142 -902 q 5 -681 -40 -781 q 78 -458 50 -581 q 106 -212 106 -336 q 100 -66 105 -117 q 75 37 95 -16 q 70 51 73 43 q 65 65 67 59 q 64 73 64 71 q 83 80 64 74 q 131 94 102 86 q 278 133 223 118 q 358 157 332 148 q 392 175 385 167 q 399 192 399 182 q 391 212 399 203 q 371 220 382 220 q 147 163 359 220 q 43 136 46 136 q 67 236 60 194 q 75 321 75 278 q 31 416 75 416 q 6 386 8 416 q 9 359 6 374 q 15 317 15 341 q -7 195 15 279 q -62 4 -29 111 q -130 -210 -95 -102 q -225 -518 -194 -403 q -264 -771 -264 -678 q -203 -900 -264 -880 l -189 -902 m -183 -840 q -201 -766 -201 -840 q -199 -708 -201 -738 q -192 -657 -197 -679 q -148 -473 -179 -585 q -81 -248 -117 -361 q -17 -56 -45 -135 q 14 23 11 23 q 36 -56 24 10 q 47 -188 47 -121 q -17 -566 47 -361 q -110 -762 -59 -684 q -183 -840 -161 -840 z "},"g":{"ha":636,"x_min":-189,"x_max":673,"o":"m -109 -838 q 48 -753 -34 -838 q 199 -526 130 -669 q 307 -201 268 -382 q 312 -167 311 -178 q 315 -152 314 -157 q 320 -143 317 -147 q 332 -133 324 -139 q 352 -115 340 -126 q 562 68 418 -53 q 666 158 659 149 q 673 178 673 168 q 665 198 673 190 q 646 206 656 206 q 585 170 631 206 q 391 3 515 116 q 336 -44 338 -44 l 336 -41 q 352 122 346 46 q 362 293 359 199 q 351 339 362 329 q 326 349 340 349 q 319 348 321 349 q 313 347 316 347 q 306 345 311 346 q 301 347 303 345 q 296 355 299 349 q 200 384 284 384 q 168 383 179 384 q 148 379 157 382 q 123 368 139 376 q 19 262 58 336 q -21 96 -21 187 q 2 -4 -21 27 q 62 -35 25 -35 q 170 26 113 -35 q 296 209 227 87 q 263 -113 296 122 l 224 -153 q 87 -292 138 -237 q -20 -418 35 -347 q -189 -746 -189 -632 q -164 -814 -189 -791 q -109 -838 -139 -838 m -108 -775 q -121 -771 -117 -775 q -129 -747 -129 -762 q 173 -292 -106 -577 q 236 -229 235 -229 l 236 -231 q 229 -262 236 -235 q 212 -322 221 -290 q 194 -379 202 -355 q 42 -665 130 -555 q -108 -775 -45 -775 m 64 27 q 44 47 50 27 q 38 92 38 67 q 60 203 38 151 q 117 290 83 256 q 189 323 152 323 l 227 321 q 256 317 237 320 l 283 313 q 145 94 199 161 q 64 27 91 27 z "},"h":{"ha":536,"x_min":-31,"x_max":569,"o":"m 0 -57 q 46 0 24 -57 q 205 275 109 159 q 244 314 227 299 q 269 329 262 329 q 271 329 269 329 q 273 326 272 328 q 273 314 273 323 q 270 269 273 299 q 258 96 258 129 q 279 1 262 26 q 336 -26 296 -25 q 410 5 369 -26 q 519 115 451 37 q 549 153 538 139 q 565 173 560 166 q 569 184 569 180 q 562 205 569 197 q 544 215 554 214 q 516 200 532 215 q 461 142 499 185 q 339 35 365 35 q 323 52 327 35 q 320 106 320 70 q 327 212 320 153 q 332 302 332 266 q 325 363 332 343 q 305 389 317 383 q 277 395 292 395 q 185 344 239 395 q 77 201 132 292 q 50 161 52 161 q 57 213 50 169 q 74 310 64 256 q 92 403 83 364 q 352 1158 189 868 q 378 1220 378 1202 q 349 1243 378 1242 q 332 1239 339 1243 q 298 1187 322 1230 q 87 647 177 977 q -19 115 17 389 q -26 40 -24 68 q -31 -24 -28 18 q -28 -37 -31 -33 q -22 -45 -26 -41 q 0 -57 -10 -57 z "},"i":{"ha":345,"x_min":-10,"x_max":394,"o":"m 136 -111 q 235 -76 188 -111 q 321 19 283 -40 q 385 151 359 78 q 394 188 394 176 q 386 207 394 199 q 363 215 377 215 q 346 208 352 215 q 323 159 339 201 q 225 3 282 59 q 135 -52 169 -52 q 104 -39 121 -52 q 72 5 87 -25 q 52 85 58 35 l 49 129 q 100 385 49 244 q 110 423 110 410 q 102 444 110 436 q 83 452 94 452 q 66 446 75 452 q 36 392 54 437 q 4 279 19 347 q -10 138 -10 211 q -7 71 -10 102 q -1 21 -5 39 q 51 -76 17 -41 q 136 -111 85 -111 m 87 459 l 87 460 q 90 476 89 465 q 20 564 90 520 q -1 605 -1 576 q 25 651 -1 633 q 53 659 39 659 q 97 631 75 659 l 103 619 q 150 685 103 667 q 170 688 163 688 q 207 669 193 686 q 223 621 223 649 q 133 487 223 555 q 87 459 111 471 z "},"j":{"ha":294,"x_min":-500,"x_max":324,"o":"m -433 -846 l -417 -845 q -205 -692 -316 -836 q -18 -305 -95 -547 q 1 -237 -9 -277 q 19 -163 11 -197 q 26 -121 26 -128 q 107 -34 26 -110 q 310 151 187 43 q 321 163 318 157 q 324 176 324 169 q 298 206 324 205 q 250 180 283 206 q 102 47 197 139 q 44 -5 47 -5 q 53 104 50 47 q 56 249 56 160 q 49 411 56 366 q 18 456 43 456 q -5 448 4 456 q -15 427 -15 441 q -7 353 -9 380 q -5 232 -5 317 q -6 120 -5 159 q -10 58 -7 81 q -16 13 -12 35 q -22 -35 -19 -6 l -29 -79 q -380 -489 -260 -320 q -500 -762 -500 -659 q -462 -840 -500 -814 q -433 -846 -450 -846 m -423 -787 q -435 -781 -432 -787 q -438 -765 -438 -776 q -425 -703 -438 -742 q -390 -623 -412 -664 q -100 -244 -299 -460 q -54 -199 -58 -199 q -227 -616 -110 -445 q -303 -709 -260 -664 q -377 -770 -346 -753 q -423 -787 -408 -787 m 5 463 q -41 490 -18 475 q -131 624 -131 558 q -115 673 -131 652 q -78 691 -101 689 q -58 688 -71 691 q -11 623 -11 670 l -5 635 q 39 663 18 663 q 67 654 54 663 q 93 608 93 636 q 72 568 93 579 q 2 479 2 524 q 5 464 3 468 l 5 463 z "},"k":{"ha":488,"x_min":-22,"x_max":534,"o":"m 309 -11 q 460 68 376 -11 q 534 176 534 146 q 507 206 534 204 q 494 203 499 206 q 480 190 488 201 q 456 158 472 180 q 381 82 426 115 q 311 51 340 51 q 271 67 287 51 q 243 119 255 83 q 237 148 238 132 q 235 198 235 164 q 251 311 235 261 q 309 431 267 361 q 334 490 334 471 q 324 510 334 503 q 306 517 314 517 q 258 479 290 517 q 187 383 226 440 q 109 269 148 326 l 52 182 q 72 313 52 190 q 122 605 92 436 q 185 928 153 773 q 245 1166 218 1084 q 261 1228 261 1211 q 252 1249 261 1242 q 235 1255 243 1255 q 188 1194 210 1255 q 142 1026 165 1133 q 92 780 118 920 q 43 510 69 662 q -2 236 17 359 q -22 96 -22 113 q -13 59 -22 67 q 16 48 -4 50 q 54 74 33 48 q 111 157 74 100 q 171 250 135 196 l 172 250 l 173 240 l 172 201 q 188 94 172 142 q 236 17 205 45 q 309 -11 267 -11 z "},"l":{"ha":404,"x_min":-14,"x_max":438,"o":"m 180 18 q 256 34 213 18 q 338 73 300 49 q 408 133 377 100 q 438 179 438 165 q 430 198 438 189 q 410 210 422 208 q 394 202 404 210 q 361 172 384 195 q 182 81 261 81 q 82 146 118 81 q 46 340 46 212 q 90 702 46 471 q 205 1182 134 934 q 224 1257 224 1246 q 215 1278 224 1274 q 194 1284 206 1282 q 162 1249 177 1284 q 123 1118 148 1214 q 55 844 85 979 q 5 581 24 708 q -14 343 -14 454 q 138 25 -14 68 q 180 18 160 18 z "},"m":{"ha":831,"x_min":-14,"x_max":871,"o":"m 616 -33 q 787 66 687 -33 q 846 133 822 100 q 871 178 871 165 q 861 197 871 188 q 842 207 852 207 q 822 195 833 207 q 768 136 810 184 q 687 60 730 92 q 621 28 644 28 q 593 49 603 29 q 583 115 583 68 q 594 224 583 153 q 609 387 605 305 q 608 429 609 415 q 606 451 608 443 q 599 467 604 458 q 536 505 577 505 q 506 500 522 505 q 425 447 474 490 q 328 343 375 404 q 316 410 326 387 q 276 433 307 433 q 249 427 263 433 q 98 203 198 402 q 47 111 50 111 q 95 398 58 298 q 107 436 107 429 q 98 456 107 446 q 79 466 90 466 q 41 428 58 466 q 12 334 24 391 q -7 215 -1 277 q -14 104 -14 153 q -4 27 -14 52 q 33 3 5 3 q 58 14 46 3 q 90 58 71 25 q 141 153 109 90 q 261 357 239 347 q 264 348 264 357 q 250 270 264 332 q 235 193 235 208 q 244 171 235 177 q 264 165 254 165 q 278 168 272 165 q 293 183 284 172 q 316 218 302 195 q 440 377 376 313 q 532 441 503 441 q 546 434 541 441 q 550 404 550 426 q 539 287 550 366 q 524 104 524 160 q 527 53 524 71 q 558 -9 536 15 q 616 -33 580 -33 z "},"n":{"ha":705,"x_min":-8,"x_max":751,"o":"m 471 -31 q 556 -16 519 -31 q 625 24 593 -1 q 687 81 657 50 q 751 186 751 151 q 722 214 751 212 q 693 191 705 214 q 655 138 680 168 q 605 89 629 109 q 473 29 526 29 q 408 139 408 29 q 423 278 408 180 q 435 379 435 345 q 387 441 435 441 q 312 400 357 441 q 186 260 266 358 q 60 123 76 123 q 53 149 53 127 q 81 284 53 195 q 102 361 102 342 q 92 380 102 374 q 75 387 83 387 q 36 345 56 387 q 4 247 17 302 q -8 151 -8 191 q 10 79 -8 100 q 52 58 28 58 q 87 67 68 58 q 139 109 106 76 q 227 211 172 142 q 372 369 356 369 l 374 368 q 366 310 374 358 q 346 138 346 185 q 371 25 346 65 q 471 -31 406 -31 z "},"o":{"ha":513,"x_min":-15,"x_max":547,"o":"m 96 2 q 197 45 144 5 q 234 81 214 58 q 264 117 255 103 q 272 121 265 121 l 296 117 q 369 111 330 111 q 499 134 451 111 q 547 182 547 158 q 519 210 544 210 q 495 202 507 210 q 443 179 476 187 q 371 171 410 171 q 320 175 340 171 l 298 178 q 318 241 311 214 q 325 301 325 267 q 289 418 325 372 q 199 464 253 464 q 119 432 154 464 q 77 349 84 399 q 74 331 76 335 q 66 327 72 327 q 32 296 50 327 q 0 221 14 265 q -15 134 -14 177 q 13 39 -15 76 q 82 2 41 2 l 96 2 m 86 64 q 47 129 47 64 q 87 269 47 199 l 94 259 q 129 208 111 231 q 179 163 146 186 q 198 151 191 157 q 206 143 206 144 q 192 124 206 139 q 159 96 177 110 q 86 64 121 64 m 238 202 q 222 210 234 202 q 197 228 210 217 q 175 248 184 238 q 140 331 140 290 q 157 381 140 361 q 197 402 174 402 q 242 379 221 402 q 263 302 263 355 q 258 258 263 281 q 248 218 254 235 q 238 202 241 202 z "},"p":{"ha":722,"x_min":-155,"x_max":755,"o":"m -131 -826 l -123 -825 q -101 -817 -109 -825 q -90 -782 -94 -810 q -80 -693 -85 -754 q -45 -397 -64 -517 q 1 -163 -26 -276 q 111 138 47 16 q 245 323 175 260 q 381 385 316 385 q 444 361 420 385 q 468 294 468 336 q 461 249 468 274 q 445 205 454 224 q 431 183 437 186 l 381 175 q 194 112 267 157 q 122 14 122 66 q 200 -48 122 -47 q 355 11 273 -48 q 415 63 382 31 q 471 126 448 96 l 572 131 q 691 138 652 134 q 741 151 729 141 q 755 181 753 161 q 747 201 755 193 q 726 209 739 209 q 713 206 721 209 q 602 193 688 197 l 509 191 l 514 208 q 523 243 519 226 q 526 290 526 260 q 515 361 526 333 q 485 406 504 389 q 443 435 467 424 q 415 444 427 442 q 380 446 404 446 q 281 423 327 446 q 182 347 235 400 q 60 178 113 279 q 39 140 41 140 q 45 159 39 142 q 123 342 71 239 q 149 398 138 374 q 159 429 159 421 q 150 450 159 442 q 130 458 140 458 q 106 446 117 458 q 52 342 94 431 q -106 -184 -50 121 q -155 -690 -153 -441 q -154 -787 -155 -769 q -141 -823 -153 -816 q -131 -826 -138 -826 m 198 11 q 191 12 193 11 q 188 13 189 12 q 186 16 186 14 q 186 18 186 17 q 216 52 186 30 q 286 89 247 73 q 337 104 311 98 q 372 111 363 111 q 376 110 376 111 q 352 87 376 106 q 298 49 328 68 q 249 22 269 30 q 198 11 216 11 z "},"q":{"ha":582,"x_min":-7,"x_max":612,"o":"m 86 -829 q 127 -815 106 -829 q 205 -705 165 -787 q 274 -512 245 -622 q 302 -296 302 -401 l 301 -258 q 300 -201 301 -224 q 292 -145 298 -178 q 273 -52 286 -113 l 269 -32 q 318 6 269 -22 q 431 69 367 35 q 527 123 482 98 q 594 166 572 149 q 608 181 604 176 q 612 196 612 187 q 604 216 612 208 q 585 224 597 224 q 510 184 568 222 q 337 85 452 147 q 274 52 295 64 q 244 35 254 41 q 229 22 235 28 l 224 18 q 282 210 249 110 q 324 355 324 340 q 295 386 321 386 q 274 377 284 386 q 189 260 227 307 q 110 187 151 213 q 73 174 90 174 q 61 180 66 175 q 55 203 56 184 q 62 242 55 224 q 83 288 68 260 q 154 365 111 338 q 246 393 197 393 l 277 391 q 298 399 290 391 q 307 419 307 408 q 293 443 307 435 q 235 452 279 451 q 119 414 178 452 q 24 309 60 375 q -7 200 -7 248 q 25 123 -7 151 q 42 115 34 117 q 70 113 51 113 q 130 127 104 113 q 182 165 156 140 q 206 185 203 185 l 208 184 l 206 179 q 23 -701 31 -403 q 39 -796 23 -762 q 86 -829 55 -829 m 93 -764 q 85 -701 85 -764 q 174 -174 85 -517 q 205 -50 202 -53 q 219 -89 211 -50 q 235 -179 228 -127 q 243 -273 241 -231 q 205 -530 243 -391 q 111 -745 167 -668 q 93 -764 98 -764 z "},"r":{"ha":625,"x_min":-28,"x_max":673,"o":"m 405 -62 q 441 -58 427 -62 q 479 -41 454 -54 q 570 28 526 -16 q 644 116 614 72 q 673 180 673 160 q 666 201 673 195 q 644 209 659 208 q 604 169 625 209 q 498 44 555 90 q 399 -3 441 -3 q 363 12 378 -3 q 348 68 348 26 q 384 218 348 128 q 468 382 420 309 q 494 435 494 417 q 484 453 494 445 q 465 462 475 462 q 427 438 451 462 q 201 286 327 349 q 134 258 167 270 q 90 246 101 246 q 87 247 88 246 q 85 248 86 248 q 94 261 85 254 q 144 361 144 319 q 131 393 144 380 q 98 405 118 405 q 15 358 58 405 q -28 266 -28 311 q -5 209 -28 235 q 65 183 18 183 q 342 294 163 183 l 345 296 q 346 294 346 296 q 330 248 346 288 q 298 151 307 191 q 288 70 288 111 q 289 26 288 39 q 297 1 291 14 q 351 -54 313 -38 q 368 -60 360 -58 q 389 -62 376 -62 l 405 -62 z "},"s":{"ha":385,"x_min":-145,"x_max":425,"o":"m -71 -450 q -29 -444 -49 -450 q 71 -373 24 -422 q 145 -258 117 -325 q 174 -117 174 -192 q 172 -73 173 -85 q 170 -41 172 -61 q 382 131 281 58 q 425 176 425 159 q 415 195 425 186 q 395 204 406 204 q 359 190 382 204 q 310 154 344 180 q 179 49 230 92 q 149 28 159 28 l 126 77 q 68 190 105 123 q 174 293 132 241 q 216 387 216 345 q 202 430 216 412 q 153 448 187 448 q 89 434 122 448 q 38 396 63 421 q 1 345 12 371 q -14 275 -14 311 q -11 241 -14 252 l -10 236 q 4 188 -7 214 q 37 119 14 162 q 70 52 59 76 q 90 7 81 27 l 100 -20 q -33 -166 22 -102 q -116 -282 -87 -231 q -145 -379 -145 -334 q -71 -450 -145 -450 m -71 -390 q -84 -378 -84 -390 q -62 -315 -84 -358 q 10 -208 -38 -267 q 113 -98 58 -149 q 97 -212 110 -162 q 40 -315 83 -262 q -23 -370 10 -351 q -71 -390 -57 -390 m 50 254 q 47 261 49 258 q 46 272 46 263 q 51 301 46 283 q 61 329 55 318 q 100 368 77 355 q 149 389 122 381 q 153 382 153 389 q 137 350 153 373 q 101 304 121 328 q 66 269 81 281 l 50 254 z "},"t":{"ha":355,"x_min":-159,"x_max":682,"o":"m 144 -66 q 214 -49 176 -66 q 307 30 258 -26 q 392 152 357 85 q 400 182 400 169 q 374 207 400 205 q 366 207 370 207 q 358 205 362 207 q 349 197 355 203 q 307 132 341 186 q 245 53 281 90 q 184 4 209 17 q 147 -5 163 -5 q 80 66 104 -5 q 56 248 56 137 q 90 583 56 399 q 193 1014 123 766 l 203 1046 l 279 1056 q 519 1092 387 1071 l 613 1105 q 662 1113 653 1111 q 674 1120 671 1116 l 675 1120 q 682 1140 682 1129 q 673 1162 682 1153 q 650 1168 667 1168 q 319 1125 619 1168 q 227 1112 229 1112 l 227 1113 q 254 1189 227 1121 q 284 1272 284 1261 q 275 1289 284 1280 q 256 1298 266 1298 q 231 1286 243 1298 q 202 1230 221 1274 q 168 1138 184 1185 q 160 1116 164 1126 q 153 1103 156 1106 q 109 1094 151 1101 q 6 1079 66 1088 q -87 1066 -54 1071 q -136 1056 -121 1061 q -155 1046 -151 1052 q -159 1030 -159 1040 q -149 1009 -159 1017 q -125 1001 -140 1001 q 0 1017 -116 1001 q 132 1033 122 1033 l 134 1032 q 116 965 134 1030 q 56 733 83 851 q -5 245 -5 469 q 1 135 -5 175 q 144 -66 33 -66 z "},"u":{"ha":649,"x_min":-8,"x_max":694,"o":"m 97 -50 q 201 4 155 -50 q 307 167 248 58 q 351 45 318 87 q 448 3 383 3 q 604 69 524 3 q 668 131 642 100 q 694 181 694 163 q 667 211 694 211 q 653 208 658 211 q 640 197 648 205 q 541 100 595 136 q 448 65 486 65 q 414 73 429 65 q 382 117 394 85 q 370 189 370 150 q 412 391 376 290 q 418 419 418 407 q 389 451 418 449 q 372 445 379 451 q 354 420 364 439 q 326 361 343 400 q 100 12 177 12 q 67 46 84 12 q 51 140 51 80 q 59 231 52 189 q 85 346 66 273 q 98 419 98 401 q 66 450 93 450 q 49 442 56 450 q 34 399 44 435 q 14 317 24 362 q -1 239 3 271 q -8 130 -8 186 q -5 67 -8 91 q 76 -47 16 -29 l 97 -50 z "},"v":{"ha":503,"x_min":-12,"x_max":537,"o":"m 62 -54 q 155 0 105 -54 q 259 146 204 54 l 267 140 q 312 107 290 119 q 376 96 333 96 q 453 111 416 96 q 514 146 490 126 q 537 184 537 167 q 528 203 537 193 q 508 213 519 213 q 475 195 494 213 q 428 167 456 177 q 376 157 401 157 q 326 172 351 157 q 296 205 300 188 q 311 247 296 216 q 356 391 356 343 q 343 427 356 416 q 317 437 331 437 q 255 382 284 437 q 225 255 225 328 l 225 212 q 132 69 176 129 q 67 9 87 9 q 54 27 57 9 q 51 96 51 45 q 58 204 51 150 q 81 336 65 258 q 90 400 90 381 q 63 430 90 430 q 39 418 50 430 q 20 346 32 406 q -2 211 7 286 q -12 86 -12 136 q 7 -21 -12 12 q 62 -54 26 -54 z "},"w":{"ha":670,"x_min":-9,"x_max":713,"o":"m 54 39 q 134 88 90 39 q 164 115 161 115 q 169 109 167 115 q 207 65 180 83 q 275 47 234 47 q 347 62 310 47 q 418 101 385 77 q 465 70 443 81 q 528 60 488 60 q 600 74 564 60 q 655 107 626 85 q 698 147 684 128 q 713 181 713 166 q 706 199 713 192 q 685 206 699 206 q 669 201 676 206 q 649 182 663 197 q 526 121 585 121 q 496 125 507 123 q 479 131 486 127 q 465 143 472 136 q 537 251 513 201 q 562 357 562 300 q 541 429 562 401 q 478 456 521 456 q 392 399 427 456 q 357 264 357 342 q 372 174 357 216 q 377 155 377 159 q 369 142 377 147 q 340 127 361 137 q 273 108 300 108 q 220 165 223 108 q 230 217 220 189 q 237 246 237 236 q 227 265 237 256 q 206 273 218 273 q 196 271 201 273 q 182 259 191 269 q 161 228 174 249 q 57 101 104 134 q 54 109 55 106 q 51 116 52 113 q 50 124 50 119 q 49 138 49 130 q 66 247 49 178 q 111 380 84 315 q 126 425 126 410 q 116 443 126 437 q 96 450 105 450 q 50 394 74 450 q 8 267 25 338 q -9 146 -9 195 q 8 63 -8 87 q 54 39 24 39 m 429 197 q 424 210 427 197 q 418 238 420 222 q 416 265 416 254 q 428 330 416 300 q 454 378 439 359 q 481 397 469 397 q 500 354 499 397 q 449 222 500 294 q 429 197 430 197 z "},"x":{"ha":310,"x_min":-142,"x_max":355,"o":"m 149 23 q 246 57 192 23 q 319 119 283 81 q 355 182 355 157 q 327 206 355 203 q 317 205 321 206 q 308 200 313 205 q 294 186 303 196 q 271 159 286 176 q 209 108 243 130 q 153 86 176 86 q 110 113 126 86 q 98 138 104 121 q 85 173 91 155 q 80 196 80 191 q 117 250 80 201 q 203 412 203 363 q 175 441 203 441 q 142 408 151 441 q 117 357 135 385 q 83 306 100 328 q 63 283 66 283 q 57 299 61 284 l 56 304 q 18 405 45 364 q -37 445 -9 445 q -55 438 -47 445 q -62 417 -62 431 q -59 402 -62 409 q -43 385 -55 395 q -14 326 -24 363 q 9 219 -3 289 q -52 157 -26 182 q -106 111 -77 133 q -140 83 -137 90 l -142 69 q -135 49 -142 57 q -117 41 -128 41 q -9 111 -82 43 q 26 140 20 140 q 31 139 30 140 q 31 136 31 138 q 33 131 31 134 q 40 114 34 129 l 45 101 q 149 23 85 23 z "},"y":{"ha":603,"x_min":-113,"x_max":638,"o":"m -20 -803 q 43 -787 9 -803 q 111 -733 73 -772 q 179 -651 149 -695 q 295 -395 252 -539 q 357 -62 337 -251 q 489 52 413 -10 q 616 146 565 113 q 638 182 638 164 q 631 199 638 192 q 610 207 624 207 q 412 67 580 207 q 363 28 365 28 l 380 428 l 374 433 q 361 446 368 441 q 344 450 355 450 q 326 444 336 450 q 258 362 311 433 q 79 178 149 218 q 60 170 66 170 q 56 176 57 171 q 55 196 55 182 q 62 277 56 235 q 87 368 68 319 q 96 398 92 382 q 100 421 100 413 q 93 444 100 438 q 75 449 86 449 q 51 436 62 449 q 24 376 39 422 q -7 203 -7 273 q 57 109 -7 109 q 134 139 90 109 q 309 325 199 186 q 311 307 311 325 q 298 -18 311 232 l 298 -29 q 31 -328 128 -197 q -103 -589 -67 -460 q -113 -679 -113 -632 q -97 -759 -113 -734 q -54 -796 -80 -785 q -20 -803 -39 -803 m -18 -741 q -35 -738 -31 -741 q -44 -727 -40 -734 l -48 -722 l -50 -715 q -54 -681 -52 -705 q 9 -483 -54 -606 q 200 -218 72 -360 q 286 -135 276 -135 q 287 -136 286 -135 q 278 -198 287 -153 q 257 -295 269 -243 q 233 -387 245 -347 q 136 -604 196 -507 q 18 -730 76 -700 q -18 -741 -3 -741 z "},"z":{"ha":562,"x_min":-199,"x_max":603,"o":"m -31 -833 q 155 -769 66 -833 q 309 -600 243 -705 q 406 -368 375 -495 q 415 -299 413 -332 q 418 -201 417 -265 q 411 -98 418 -134 q 387 -16 403 -61 l 382 0 q 396 12 382 1 l 505 89 q 603 178 603 159 q 593 199 603 191 q 572 207 584 207 q 503 170 555 207 q 387 83 450 132 q 351 56 370 69 q 290 125 323 95 q 214 171 257 155 q 186 181 186 180 q 214 214 186 184 q 277 345 277 279 l 277 349 q 222 448 277 420 q 199 458 209 456 q 170 460 190 460 q 82 429 125 460 q 10 350 39 397 q -23 251 -19 302 q -12 214 -23 229 q 14 200 -1 200 q 35 207 24 200 q 47 233 47 214 q 43 245 47 238 q 40 256 40 252 q 57 304 40 273 q 94 359 73 336 q 133 388 111 376 q 170 399 155 399 q 202 386 186 399 q 217 351 217 373 q 193 286 217 323 q 151 238 179 264 q 96 197 123 213 q 59 157 59 177 q 68 137 59 146 q 103 127 77 127 q 158 121 129 127 q 209 105 188 115 q 263 65 237 91 q 302 17 288 39 q -199 -667 -199 -400 q -181 -751 -199 -713 q -124 -811 -162 -789 q -31 -833 -87 -833 m -35 -774 q -110 -743 -83 -771 q -137 -665 -137 -714 q 216 -140 -137 -469 q 328 -43 319 -43 q 341 -71 333 -43 q 355 -139 349 -98 q 361 -216 361 -179 q 306 -475 356 -358 q 176 -669 256 -592 q 5 -769 97 -747 l -35 -774 z "},"":{"ha":768,"x_min":-7,"x_max":814,"o":"m 562 3 q 681 37 620 3 q 790 132 742 71 q 808 158 802 148 q 814 176 814 168 q 811 188 814 182 q 785 207 802 207 q 746 181 766 207 q 705 137 732 162 q 659 98 678 112 q 564 69 609 69 q 423 220 469 69 q 406 308 413 256 q 399 396 399 359 q 401 425 399 413 q 426 500 404 443 q 559 921 506 703 q 615 1272 612 1139 q 606 1350 615 1332 q 570 1369 596 1369 q 510 1305 540 1369 q 437 1086 480 1242 q 334 502 347 760 q 331 460 332 475 q 325 432 329 445 q 311 399 320 420 q 261 301 291 355 q 206 208 232 248 q 141 129 174 161 q 92 96 109 96 q 76 116 84 96 q 62 164 67 136 q 59 232 59 189 q 62 326 59 275 q 146 766 71 475 q 233 1114 218 1048 q 255 1278 255 1212 q 198 1377 255 1377 l 191 1376 q 152 1341 152 1374 q 159 1320 152 1329 q 177 1310 165 1310 q 191 1280 191 1310 q 166 1114 191 1226 q 110 892 149 1038 q 18 500 43 641 q -7 250 -7 362 q -1 139 -7 172 q 21 77 4 106 q 93 31 49 31 q 142 45 117 31 q 314 259 221 93 l 338 303 l 348 253 q 513 9 389 50 q 562 3 536 3 m 420 689 q 419 693 419 689 q 444 832 425 741 q 509 1095 472 968 q 545 1210 541 1210 q 546 1204 546 1209 q 526 1082 546 1181 q 458 798 495 925 q 420 689 425 689 z "},"":{"ha":949,"x_min":-22,"x_max":1002,"o":"m 770 -5 q 804 -1 790 -5 q 842 15 818 3 q 975 128 918 54 q 1002 182 1002 163 q 994 201 1002 193 q 974 210 986 210 q 946 197 959 210 l 932 180 q 843 91 886 121 q 766 58 800 61 q 724 142 724 58 q 733 256 724 189 q 740 315 737 284 q 743 365 743 346 q 685 456 743 456 q 618 421 653 456 q 524 296 583 387 q 422 173 443 173 q 396 214 408 173 q 381 316 384 254 l 378 368 l 421 453 q 675 1120 579 774 q 690 1172 684 1151 q 698 1196 696 1194 q 724 1204 701 1198 q 781 1217 747 1210 q 884 1240 846 1232 q 940 1254 922 1249 q 965 1262 958 1259 q 978 1272 972 1266 q 993 1294 993 1284 q 981 1310 993 1302 q 952 1316 973 1316 q 819 1293 918 1316 q 746 1278 777 1284 q 713 1272 715 1272 q 715 1284 713 1275 q 724 1377 724 1337 q 715 1435 724 1417 q 685 1453 703 1453 q 635 1421 660 1453 q 601 1358 623 1402 q 544 1231 574 1306 q 515 1224 528 1227 q 472 1213 500 1220 q 384 1190 444 1206 q 286 1166 295 1166 q 299 1199 286 1170 q 362 1318 334 1272 q 384 1372 384 1354 q 377 1389 384 1383 q 353 1399 366 1399 q 337 1394 345 1399 q 256 1262 317 1380 q 199 1137 227 1206 l 117 1112 q -4 1070 11 1080 q -22 1040 -22 1057 q -19 1028 -22 1034 q -10 1016 -15 1020 q 4 1011 -5 1011 q 85 1033 24 1011 q 135 1049 114 1043 q 162 1055 157 1055 q 163 1053 163 1055 q 134 962 163 1046 q -4 312 7 587 l -5 264 q 10 139 -5 180 q 46 81 23 101 q 98 62 69 62 q 141 72 119 62 q 289 221 209 104 q 317 258 315 258 q 323 237 319 258 q 344 166 328 199 q 395 111 366 121 q 426 106 406 108 q 442 109 435 106 q 460 117 450 111 q 506 158 481 128 q 582 265 531 189 q 676 382 661 382 q 678 381 677 382 q 679 378 679 380 q 669 269 679 366 q 659 138 659 185 q 669 65 659 90 q 720 3 684 23 q 736 -4 728 -2 q 770 -5 745 -5 m 100 128 q 80 145 87 128 q 60 271 60 176 q 174 871 62 507 q 220 1009 197 946 q 251 1081 243 1072 q 376 1119 258 1086 q 508 1152 497 1152 l 509 1152 q 470 1039 509 1145 q 321 457 341 684 q 314 404 319 425 q 297 359 309 382 q 260 297 284 335 q 121 135 176 168 q 100 128 108 128 m 409 587 q 408 589 408 587 q 471 834 414 651 q 575 1131 522 996 q 596 1173 589 1166 q 618 1179 604 1179 q 620 1178 620 1179 q 621 1177 621 1177 q 597 1084 621 1162 q 448 670 528 861 q 409 587 413 587 m 633 1253 l 630 1253 q 626 1254 626 1253 q 638 1283 626 1257 q 651 1310 650 1310 l 651 1309 q 646 1282 651 1303 q 633 1253 642 1255 z "}}}
